{
  "accessors": [
    {
      "bufferView": 2,
      "componentType": 5126,
      "count": 1259,
      "max": [
        2.9909000396728516,
        3.0073800086975098,
        7.9528398513793945
      ],
      "min": [
        -2.9909100532531738,
        -2.9645400047302246,
        2.9306299686431885
      ],
      "type": "VEC3"
    },
    {
      "bufferView": 2,
      "byteOffset": 15108,
      "componentType": 5126,
      "count": 1259,
      "max": [
        0.8268430233001709,
        0.82239705324172974,
        1
      ],
      "min": [
        -0.8268430233001709,
        -0.82221943140029907,
        -1
      ],
      "type": "VEC3"
    },
    {
      "bufferView": 3,
      "componentType": 5126,
      "count": 1259,
      "max": [
        0.99998819828033447,
        0.99993455410003662,
        0.28875178098678589,
        1
      ],
      "min": [
        -0.99998551607131958,
        -0.99853456020355225,
        -0.29742324352264404,
        -1
      ],
      "type": "VEC4"
    },
    {
      "bufferView": 2,
      "byteOffset": 30216,
      "componentType": 5126,
      "count": 1259,
      "max": [
        1,
        1,
        1
      ],
      "min": [
        1,
        1,
        1
      ],
      "type": "VEC3"
    },
    {
      "bufferView": 1,
      "componentType": 5126,
      "count": 1259,
      "max": [
        0.90921998023986816,
        0.94291001558303833
      ],
      "min": [
        4.9999998736893758e-05,
        4.9999998736893758e-05
      ],
      "type": "VEC2"
    },
    {
      "bufferView": 0,
      "componentType": 5125,
      "count": 3288,
      "max": [
        1258
      ],
      "min": [
        0
      ],
      "type": "SCALAR"
    },
    {
      "bufferView": 2,
      "byteOffset": 45324,
      "componentType": 5126,
      "count": 21779,
      "max": [
        3.0237100124359131,
        5.9365100860595703,
        8.0747804641723633
      ],
      "min": [
        -14.243029594421387,
        -5.9365200996398926,
        -6.0304498672485352
      ],
      "type": "VEC3"
    },
    {
      "bufferView": 2,
      "byteOffset": 306672,
      "componentType": 5126,
      "count": 21779,
      "max": [
        1,
        1,
        1
      ],
      "min": [
        -1,
        -1,
        -1
      ],
      "type": "VEC3"
    },
    {
      "bufferView": 3,
      "byteOffset": 20144,
      "componentType": 5126,
      "count": 21779,
      "max": [
        1,
        1,
        1,
        1
      ],
      "min": [
        -1,
        -1,
        -1,
        1
      ],
      "type": "VEC4"
    },
    {
      "bufferView": 2,
      "byteOffset": 568020,
      "componentType": 5126,
      "count": 21779,
      "max": [
        1,
        1,
        1
      ],
      "min": [
        1,
        1,
        1
      ],
      "type": "VEC3"
    },
    {
      "bufferView": 1,
      "byteOffset": 10072,
      "componentType": 5126,
      "count": 21779,
      "max": [
        0.99994999170303345,
        0.99994999170303345
      ],
      "min": [
        4.9999998736893758e-05,
        4.9999998736893758e-05
      ],
      "type": "VEC2"
    },
    {
      "bufferView": 0,
      "byteOffset": 13152,
      "componentType": 5125,
      "count": 44265,
      "max": [
        21778
      ],
      "min": [
        0
      ],
      "type": "SCALAR"
    }
  ],
  "asset": {
    "extras": {
      "author": "Snowfall (https://sketchfab.com/snowfall)",
      "license": "CC-BY-4.0 (http://creativecommons.org/licenses/by/4.0/)",
      "source": "https://sketchfab.com/models/19c3c6e0c1b548919d11681065fcf65a",
      "title": "Galileo Orbiter"
    },
    "generator": "Sketchfab-3.20.6",
    "version": "2.0"
  },
  "bufferViews": [
    {
      "buffer": 0,
      "byteLength": 190212,
      "byteOffset": 0,
      "name": "floatBufferViews",
      "target": 34963
    },
    {
      "buffer": 0,
      "byteLength": 184304,
      "byteOffset": 190212,
      "byteStride": 8,
      "name": "floatBufferViews",
      "target": 34962
    },
    {
      "buffer": 0,
      "byteLength": 829368,
      "byteOffset": 374516,
      "byteStride": 12,
      "name": "floatBufferViews",
      "target": 34962
    },
    {
      "buffer": 0,
      "byteLength": 368608,
      "byteOffset": 1203884,
      "byteStride": 16,
      "name": "floatBufferViews",
      "target": 34962
    }
  ],
  "buffers": [
    {
      "byteLength": 1572492,
      "uri": "scene.bin"
    }
  ],
  "images": [
    {
      "uri": "textures/Galileo_normal.png"
    },
    {
      "uri": "textures/Galileo_baseColor.png"
    },
    {
      "uri": "textures/Galileo.001_baseColor.png"
    },
    {
      "uri": "textures/Galileo.001_normal.png"
    }
  ],
  "materials": [
    {
      "doubleSided": true,
      "emissiveFactor": [
        0,
        0,
        0
      ],
      "name": "Galileo",
      "normalTexture": {
        "index": 0,
        "scale": 0.69999998809999997,
        "texCoord": 0
      },
      "pbrMetallicRoughness": {
        "baseColorFactor": [
          1,
          1,
          1,
          1
        ],
        "baseColorTexture": {
          "index": 1,
          "texCoord": 0
        },
        "metallicFactor": 0,
        "roughnessFactor": 0.59999999999999998
      }
    },
    {
      "alphaMode": "BLEND",
      "doubleSided": true,
      "emissiveFactor": [
        0,
        0,
        0
      ],
      "name": "Galileo.001",
      "normalTexture": {
        "index": 3,
        "scale": 1,
        "texCoord": 0
      },
      "pbrMetallicRoughness": {
        "baseColorFactor": [
          1,
          1,
          1,
          0.12
        ],
        "baseColorTexture": {
          "index": 2,
          "texCoord": 0
        },
        "metallicFactor": 0,
        "roughnessFactor": 0.59999999999999998
      }
    }
  ],
  "meshes": [
    {
      "name": "Circle.009_0",
      "primitives": [
        {
          "attributes": {
            "COLOR_0": 3,
            "NORMAL": 1,
            "POSITION": 0,
            "TANGENT": 2,
            "TEXCOORD_0": 4
          },
          "indices": 5,
          "material": 1,
          "mode": 4
        }
      ]
    },
    {
      "name": "Circle.000_0",
      "primitives": [
        {
          "attributes": {
            "COLOR_0": 9,
            "NORMAL": 7,
            "POSITION": 6,
            "TANGENT": 8,
            "TEXCOORD_0": 10
          },
          "indices": 11,
          "material": 0,
          "mode": 4
        }
      ]
    }
  ],
  "nodes": [
    {
      "children": [
        1
      ],
      "name": "RootNode (gltf orientation matrix)",
      "rotation": [
        -0.70710678118654746,
        -0,
        -0,
        0.70710678118654757
      ]
    },
    {
      "children": [
        2
      ],
      "name": "RootNode (model correction matrix)"
    },
    {
      "children": [
        3,
        5,
        7,
        9,
        11,
        13,
        15
      ],
      "name": "Root"
    },
    {
      "children": [
        4
      ],
      "matrix": [
        0,
        -0.59848000000000001,
        0,
        0,
        0.59848000000000001,
        0,
        0,
        0,
        0,
        0,
        0.34312000000000009,
        0,
        -0,
        0,
        -0.022440000000000005,
        1
      ],
      "name": "Circle.009"
    },
    {
      "mesh": 0,
      "name": "Circle.009_0"
    },
    {
      "children": [
        6
      ],
      "matrix": [
        1,
        0,
        0,
        0,
        0,
        1,
        0,
        0,
        0,
        0,
        1,
        0,
        11.78256,
        26.371510000000001,
        27.072519999999997,
        1
      ],
      "name": "Point.002"
    },
    {
      "name": "Point.002"
    },
    {
      "children": [
        8
      ],
      "matrix": [
        1,
        0,
        0,
        0,
        0,
        1,
        0,
        0,
        0,
        0,
        1,
        0,
        4.3383900000000004,
        -13.511749999999999,
        11.288729999999999,
        1
      ],
      "name": "Point.000"
    },
    {
      "name": "Point.000"
    },
    {
      "children": [
        10
      ],
      "matrix": [
        1,
        0,
        0,
        0,
        0,
        1,
        0,
        0,
        0,
        0,
        1,
        0,
        -75.742890000000003,
        -43.613810000000001,
        -49.779170000000008,
        1
      ],
      "name": "Point.001"
    },
    {
      "name": "Point.001"
    },
    {
      "children": [
        12
      ],
      "matrix": [
        1,
        0,
        0,
        0,
        0,
        1,
        0,
        0,
        0,
        0,
        1,
        0,
        85.578399999999988,
        35.591259999999998,
        -99.659409999999994,
        1
      ],
      "name": "Point.003"
    },
    {
      "name": "Point.003"
    },
    {
      "children": [
        14
      ],
      "matrix": [
        1,
        0,
        0,
        0,
        0,
        1,
        0,
        0,
        0,
        0,
        1,
        0,
        -66.850169999999991,
        -25.0688,
        120.15534999999998,
        1
      ],
      "name": "Point.004"
    },
    {
      "name": "Point.004"
    },
    {
      "children": [
        16
      ],
      "matrix": [
        0,
        -0.59848000000000001,
        0,
        0,
        0.59848000000000001,
        0,
        0,
        0,
        0,
        0,
        0.34312000000000009,
        0,
        -0,
        0,
        -0.022440000000000005,
        1
      ],
      "name": "Circle.000"
    },
    {
      "mesh": 1,
      "name": "Circle.000_0"
    }
  ],
  "samplers": [
    {
      "magFilter": 9729,
      "minFilter": 9987,
      "wrapS": 10497,
      "wrapT": 10497
    }
  ],
  "scene": 0,
  "scenes": [
    {
      "name": "OSG_Scene",
      "nodes": [
        0
      ]
    }
  ],
  "textures": [
    {
      "sampler": 0,
      "source": 0
    },
    {
      "sampler": 0,
      "source": 1
    },
    {
      "sampler": 0,
      "source": 2
    },
    {
      "sampler": 0,
      "source": 3
    }
  ]
}

